<svg width="270" height="219" viewBox="0 0 270 219" fill="none" xmlns="http://www.w3.org/2000/svg">
<rect x="25.8333" width="218.333" height="218.333" rx="18" fill="#50D1A3" fill-opacity="0.62"/>
<g filter="url(#filter0_d_3_37)">
<rect x="4" y="15.5952" width="155.952" height="37.4286" rx="6" fill="white"/>
</g>
<rect x="125.643" y="18.7143" width="31.1905" height="31.1905" rx="4" fill="#ECECEC"/>
<rect x="11.7976" y="24.9524" width="104.488" height="7.79762" rx="3.89881" fill="#ECECEC"/>
<rect x="11.7976" y="35.869" width="70.1786" height="7.79762" rx="3.89881" fill="#ECECEC"/>
<g filter="url(#filter1_d_3_37)">
<rect x="110.048" y="65.5" width="155.952" height="37.4286" rx="6" fill="white"/>
</g>
<rect x="231.69" y="68.619" width="31.1905" height="31.1905" rx="4" fill="#ECECEC"/>
<rect x="117.845" y="74.8571" width="104.488" height="7.79762" rx="3.89881" fill="#ECECEC"/>
<rect x="117.845" y="85.7738" width="70.1786" height="7.79762" rx="3.89881" fill="#ECECEC"/>
<g filter="url(#filter2_d_3_37)">
<rect x="110.048" y="115.405" width="155.952" height="37.4286" rx="6" fill="white"/>
</g>
<rect x="231.69" y="118.524" width="31.1905" height="31.1905" rx="4" fill="#ECECEC"/>
<rect x="117.845" y="124.762" width="104.488" height="7.79762" rx="3.89881" fill="#ECECEC"/>
<rect x="117.845" y="135.679" width="70.1786" height="7.79762" rx="3.89881" fill="#ECECEC"/>
<g filter="url(#filter3_d_3_37)">
<rect x="10.2381" y="165.31" width="155.952" height="37.4286" rx="6" fill="white"/>
</g>
<rect x="131.881" y="168.429" width="31.1905" height="31.1905" rx="4" fill="#ECECEC"/>
<rect x="18.0357" y="174.667" width="104.488" height="7.79762" rx="3.89881" fill="#ECECEC"/>
<rect x="18.0357" y="185.583" width="70.1786" height="7.79762" rx="3.89881" fill="#ECECEC"/>

</svg>
